<mxfile host="app.diagrams.net" modified="2022-04-17T13:56:01.879Z" agent="5.0 (Windows NT 10.0; Win64; x64) AppleWebKit/537.36 (KHTML, like Gecko) Chrome/100.0.4896.88 Safari/537.36" etag="23Gxvi3UQnZR4E335dkc" version="17.4.5" type="github">
  <diagram id="onlRhZPMZpqaHruSO3kA" name="Page-1">
    <mxGraphModel dx="460" dy="752" grid="1" gridSize="10" guides="1" tooltips="1" connect="1" arrows="1" fold="1" page="1" pageScale="1" pageWidth="827" pageHeight="1169" math="0" shadow="0">
      <root>
        <mxCell id="0" />
        <mxCell id="1" parent="0" />
        <mxCell id="qN9oe3ev0VnxQlKj8n7X-1" value="WFHttpTask *task" style="rounded=0;whiteSpace=wrap;html=1;" vertex="1" parent="1">
          <mxGeometry x="160" y="120" width="120" height="60" as="geometry" />
        </mxCell>
        <mxCell id="qN9oe3ev0VnxQlKj8n7X-2" value="&lt;div&gt;WFNetworkTask&amp;lt;protocol::HttpRequest,&lt;/div&gt;&lt;div&gt;&lt;span&gt;								&lt;/span&gt; protocol::HttpResponse&amp;gt;&lt;/div&gt;" style="rounded=0;whiteSpace=wrap;html=1;" vertex="1" parent="1">
          <mxGeometry x="100" y="200" width="250" height="60" as="geometry" />
        </mxCell>
        <mxCell id="qN9oe3ev0VnxQlKj8n7X-3" value="WFTaskFactory::create_http_task" style="rounded=0;whiteSpace=wrap;html=1;" vertex="1" parent="1">
          <mxGeometry x="115" y="300" width="210" height="60" as="geometry" />
        </mxCell>
        <mxCell id="qN9oe3ev0VnxQlKj8n7X-8" style="edgeStyle=orthogonalEdgeStyle;rounded=0;orthogonalLoop=1;jettySize=auto;html=1;exitX=1;exitY=0.5;exitDx=0;exitDy=0;entryX=0;entryY=0.5;entryDx=0;entryDy=0;" edge="1" parent="1" source="qN9oe3ev0VnxQlKj8n7X-4" target="qN9oe3ev0VnxQlKj8n7X-5">
          <mxGeometry relative="1" as="geometry" />
        </mxCell>
        <mxCell id="qN9oe3ev0VnxQlKj8n7X-4" value="ComplexHttpTask" style="html=1;" vertex="1" parent="1">
          <mxGeometry x="10" y="420" width="110" height="50" as="geometry" />
        </mxCell>
        <mxCell id="qN9oe3ev0VnxQlKj8n7X-9" style="edgeStyle=orthogonalEdgeStyle;rounded=0;orthogonalLoop=1;jettySize=auto;html=1;exitX=0.5;exitY=1;exitDx=0;exitDy=0;" edge="1" parent="1" source="qN9oe3ev0VnxQlKj8n7X-5" target="qN9oe3ev0VnxQlKj8n7X-6">
          <mxGeometry relative="1" as="geometry" />
        </mxCell>
        <mxCell id="qN9oe3ev0VnxQlKj8n7X-5" value="WFComplexClientTask&amp;lt;HttpRequest, HttpResponse&amp;gt;" style="html=1;" vertex="1" parent="1">
          <mxGeometry x="150" y="420" width="300" height="50" as="geometry" />
        </mxCell>
        <mxCell id="qN9oe3ev0VnxQlKj8n7X-10" style="edgeStyle=orthogonalEdgeStyle;rounded=0;orthogonalLoop=1;jettySize=auto;html=1;exitX=0.5;exitY=1;exitDx=0;exitDy=0;entryX=0.565;entryY=0.04;entryDx=0;entryDy=0;entryPerimeter=0;" edge="1" parent="1" source="qN9oe3ev0VnxQlKj8n7X-6" target="qN9oe3ev0VnxQlKj8n7X-7">
          <mxGeometry relative="1" as="geometry" />
        </mxCell>
        <mxCell id="qN9oe3ev0VnxQlKj8n7X-6" value="WFClientTask&amp;lt;REQ, RESP&amp;gt;" style="html=1;" vertex="1" parent="1">
          <mxGeometry x="210" y="520" width="180" height="50" as="geometry" />
        </mxCell>
        <mxCell id="qN9oe3ev0VnxQlKj8n7X-7" value="WFNetworkTask&amp;lt;REQ, RESP&amp;gt;" style="html=1;" vertex="1" parent="1">
          <mxGeometry x="170" y="620" width="230" height="50" as="geometry" />
        </mxCell>
      </root>
    </mxGraphModel>
  </diagram>
</mxfile>
